<?xml version="1.0" encoding="UTF-8" standalone="no"?>
<!DOCTYPE svg PUBLIC "-//W3C//DTD SVG 1.1//EN" "http://www.w3.org/Graphics/SVG/1.1/DTD/svg11.dtd">
<svg width="25px" height="20px" version="1.1" xmlns="http://www.w3.org/2000/svg" xmlns:xlink="http://www.w3.org/1999/xlink" xml:space="preserve" xmlns:serif="http://www.serif.com/" style="fill-rule:evenodd;clip-rule:evenodd;stroke-linejoin:round;stroke-miterlimit:2;">
    <g id="layer1" transform="matrix(1,0,0,1,0.00023223,-1032.4)">
        <g id="g4226">
            <clipPath id="_clip1">
                <rect x="-0" y="1032.34" width="25.003" height="20"/>
            </clipPath>
            <g clip-path="url(#_clip1)">
                <path id="path8887" d="M6.003,1034.4C6.003,1034.4 8.197,1039.44 12.626,1039.33C21.909,1039.08 23.562,1033.6 24.565,1032.34C28.727,1063.59 1.802,1050.13 2.551,1045.22C7.325,1043.75 5.625,1043.21 5.625,1043.21L6.003,1034.4Z"/>
                <path id="path8889" d="M16.888,1045.9C16.888,1045.9 17.484,1046.42 17.834,1046.89C16.511,1047.96 14.249,1048.83 9.81,1047.9C12.051,1048.73 13.939,1049.11 15.397,1049.01C14.512,1049.32 13.397,1049.54 11.96,1049.62C15.164,1049.93 17.552,1049.31 18.396,1048C18.619,1048.25 18.832,1048.67 19.042,1049.23C19.185,1048.28 19.527,1047.83 18.983,1047.09C18.437,1046.35 16.888,1045.9 16.888,1045.9L16.888,1045.9Z" style="fill:white;"/>
                <g id="path8893" transform="matrix(0.79727,-0.60362,0.56649,0.82407,0,0)">
                    <ellipse cx="-589.57" cy="835.87" rx="2.902" ry="4.149"/>
                </g>
                <ellipse id="path8897" cx="2.123" cy="1043.2" rx="1.164" ry="1.466" style="fill:white;"/>
                <ellipse id="path8899" cx="8.761" cy="1042.1" rx="2.624" ry="2.855" style="fill:white;"/>
                <path id="path8907" d="M9.462,1041L9.462,1041C8.504,1041 7.716,1041.83 7.716,1042.83C7.716,1042.83 7.716,1042.83 7.716,1042.83C7.717,1043.84 8.505,1044.66 9.462,1044.66C10.419,1044.66 11.207,1043.84 11.208,1042.83C11.208,1042.83 11.208,1042.83 11.208,1042.83C11.208,1041.83 10.42,1041 9.462,1041ZM8.805,1041.5C9.183,1041.5 9.494,1041.83 9.494,1042.23C9.494,1042.62 9.183,1042.95 8.805,1042.95C8.805,1042.95 8.805,1042.95 8.805,1042.95C8.427,1042.95 8.115,1042.62 8.115,1042.23L8.115,1042.22C8.115,1041.83 8.427,1041.5 8.805,1041.5C8.805,1041.5 8.805,1041.5 8.805,1041.5Z"/>
                <ellipse id="path8901" cx="14.531" cy="1042.7" rx="3.144" ry="3.3" style="fill:white;"/>
                <path id="path8903" d="M15.302,1040.8C14.076,1040.8 13.068,1041.86 13.068,1043.14C13.068,1043.14 13.068,1043.15 13.068,1043.15C13.068,1044.43 14.076,1045.49 15.302,1045.49C15.302,1045.49 15.303,1045.49 15.303,1045.49C16.529,1045.49 17.538,1044.43 17.538,1043.15C17.538,1043.15 17.538,1043.14 17.538,1043.14C17.538,1041.86 16.529,1040.8 15.303,1040.8C15.303,1040.8 15.302,1040.8 15.302,1040.8ZM14.683,1041.27C15.258,1041.27 15.731,1041.77 15.731,1042.37C15.731,1042.37 15.731,1042.37 15.731,1042.37C15.731,1042.98 15.258,1043.47 14.683,1043.47C14.109,1043.47 13.636,1042.98 13.636,1042.37C13.636,1042.37 13.636,1042.37 13.636,1042.37C13.636,1041.77 14.109,1041.27 14.683,1041.27Z"/>
            </g>
        </g>
    </g>
</svg>
