<?xml version="1.0" encoding="UTF-8" standalone="no"?>
<!DOCTYPE svg PUBLIC "-//W3C//DTD SVG 1.1//EN" "http://www.w3.org/Graphics/SVG/1.1/DTD/svg11.dtd">
<svg width="390px" height="82px" version="1.1" xmlns="http://www.w3.org/2000/svg" xmlns:xlink="http://www.w3.org/1999/xlink" xml:space="preserve" xmlns:serif="http://www.serif.com/" style="fill-rule:evenodd;clip-rule:evenodd;stroke-linejoin:round;stroke-miterlimit:2;">
    <rect x="0" y="0" width="390" height="82"/>
    <path d="M27.05,40.777L37.418,24.025L47.228,24.025L31.445,46.936M29.018,50.459L49.401,80.181L39.591,80.181L24.729,57.508L9.81,80.181L0,80.181L20.383,50.81L2.115,24.025L11.983,24.025L24.729,44.526M59.772,47.227C59.772,45.963 59.814,44.804 59.874,43.696L59.887,43.291L59.898,43.291C60.212,38.309 61.151,34.932 62.739,33.218C64.716,31.084 69.033,30.016 75.691,30.016C82.309,30.016 86.617,30.927 88.614,32.747C90.463,34.433 91.445,37.964 91.582,43.291L99.876,43.291C99.363,35.899 97.824,30.863 95.252,28.196C92.04,24.868 85.266,23.203 74.927,23.203C65.45,23.203 59.087,25.121 55.837,28.959C52.586,32.797 50.961,40.316 50.961,51.514C50.961,63.617 52.576,71.556 55.808,75.335C59.038,79.115 65.823,81.004 76.16,81.004C85.05,81.004 91.266,79.839 94.811,77.509C98.355,75.179 100.127,71.096 100.127,65.261L100.069,63.205L91.669,63.205L91.669,64.967C91.669,68.805 90.679,71.302 88.702,72.457C86.725,73.613 82.426,74.19 75.808,74.19C68.837,74.19 64.402,72.976 62.503,70.549C60.604,68.12 59.655,62.481 59.655,53.631L100.069,53.631L100.069,49.224C100.069,48.543 100.062,47.877 100.049,47.227L59.772,47.227Z" style="fill:rgb(165,202,228);fill-rule:nonzero;"/>
    <path d="M59.886,43.292L59.875,43.695C59.882,43.56 59.89,43.426 59.899,43.292L59.886,43.292ZM134.993,30.016C140.241,30.016 143.784,30.848 145.625,32.513C147.466,34.178 148.386,37.418 148.386,42.234L148.386,43.291L156.602,43.291C156.559,35.504 155.147,30.208 152.351,27.432C149.512,24.612 144.078,23.203 136.05,23.203C126.103,23.203 119.877,26.082 117.371,31.837L117.136,31.661L117.371,24.025L109.441,24.025L109.441,43.291L117.856,43.291C118.9,34.451 124.601,30.016 134.993,30.016" style="fill:rgb(165,202,228);fill-rule:nonzero;"/>
    <path d="M109.441,47.227L117.665,47.227L117.665,80.181L109.441,80.181L109.441,47.227ZM148.386,47.227L156.61,47.227L156.61,80.181L148.386,80.181L148.386,47.227Z" style="fill:rgb(165,202,228);"/>
    <path d="M177.32,35.655L177.32,7.637L217.441,7.637L217.441,0L168.274,0L168.274,43.292L215.124,43.292C215.382,40.356 215.787,37.818 216.328,35.655L177.32,35.655Z" style="fill:white;fill-rule:nonzero;"/>
    <rect x="168.274" y="47.227" width="9.046" height="32.954" style="fill:white;"/>
    <path d="M262.468,52.103C262.468,62.089 261.595,68.268 259.854,70.636C258.111,73.006 253.578,74.19 246.255,74.19C238.972,74.19 234.457,73.006 232.715,70.636C230.972,68.268 230.101,62.089 230.101,52.103C230.101,50.36 230.129,48.739 230.183,47.227L221.565,47.227C221.501,48.77 221.467,50.389 221.467,52.103C221.467,64.165 223.013,71.997 226.108,75.6C229.199,79.203 235.918,81.004 246.255,81.004C256.632,81.004 263.368,79.203 266.463,75.6C269.556,71.997 271.104,64.165 271.104,52.103C271.104,50.389 271.068,48.77 271.006,47.227L262.387,47.227C262.441,48.739 262.468,50.36 262.468,52.103M232.715,33.57C234.458,31.202 238.972,30.016 246.255,30.016C253.577,30.016 258.112,31.202 259.854,33.57C261.008,35.139 261.776,38.386 262.166,43.291L270.763,43.291C270.154,36.141 268.724,31.24 266.462,28.607C263.368,25.004 256.632,23.202 246.255,23.202C235.917,23.202 229.2,25.004 226.108,28.607C223.847,31.24 222.416,36.141 221.806,43.291L230.402,43.291C230.793,38.386 231.562,35.139 232.715,33.57" style="fill:white;fill-rule:nonzero;"/>
    <rect x="278.848" y="47.227" width="8.224" height="32.954" style="fill:white;"/>
    <path d="M300.818,29.546C307.083,29.546 310.216,32.425 310.216,38.182C310.216,38.691 310.159,39.689 310.04,41.177L309.793,43.292L317.899,43.292L318.029,38.71C318.029,28.058 312.86,22.732 302.522,22.732C295.041,22.732 289.676,25.376 286.427,30.662L286.251,30.486L287.073,24.025L278.848,24.025L278.848,43.292L287.225,43.292C288.056,34.139 292.577,29.546 300.818,29.546M368.033,28.607C364.938,25.005 358.203,23.202 347.826,23.202C337.488,23.202 330.771,25.005 327.678,28.607C325.418,31.24 323.987,36.141 323.378,43.291L331.972,43.291C332.363,38.386 333.133,35.138 334.286,33.57C336.029,31.201 340.543,30.016 347.826,30.016C355.148,30.016 359.682,31.201 361.425,33.57C363.167,35.94 364.038,42.117 364.038,52.103C364.038,62.089 363.167,68.267 361.425,70.636C359.682,73.005 355.148,74.19 347.826,74.19C340.543,74.19 336.029,73.005 334.286,70.636C332.543,68.267 331.672,62.089 331.672,52.103C331.672,50.359 331.7,48.739 331.753,47.227L323.136,47.227C323.072,48.77 323.038,50.39 323.038,52.103C323.038,64.165 324.584,71.996 327.678,75.599C330.771,79.202 337.488,81.004 347.826,81.004C358.203,81.004 364.938,79.202 368.033,75.599C371.127,71.996 372.674,64.165 372.674,52.103C372.674,40.042 371.127,32.21 368.033,28.607" style="fill:white;fill-rule:nonzero;"/>
    <g>
        <path d="M380.485,26.823L383.002,26.823C384.108,26.823 384.66,26.376 384.66,25.484C384.66,24.825 384.577,24.399 384.41,24.205C384.244,24.012 383.877,23.916 383.311,23.916L380.485,23.916L380.485,26.823ZM379.466,30.778L379.466,22.997L383.302,22.997C384.886,22.997 385.679,23.757 385.679,25.275C385.679,26.38 385.323,27.053 384.61,27.292C385.249,27.512 385.57,28.012 385.57,28.79L385.57,30.778L384.55,30.778L384.55,28.99C384.55,28.158 384.17,27.742 383.411,27.742L380.485,27.742L380.485,30.778L379.466,30.778ZM382.583,20.72C380.897,20.72 379.459,21.328 378.267,22.543C377.075,23.758 376.479,25.228 376.479,26.953C376.479,28.678 377.075,30.15 378.267,31.368C379.459,32.587 380.897,33.196 382.583,33.196C384.26,33.196 385.695,32.587 386.882,31.368C388.072,30.15 388.666,28.678 388.666,26.953C388.666,25.228 388.073,23.758 386.888,22.543C385.703,21.328 384.267,20.72 382.583,20.72M382.592,20C384.497,20 386.126,20.68 387.481,22.038C388.837,23.396 389.515,25.035 389.515,26.953C389.515,28.871 388.837,30.511 387.481,31.873C386.126,33.234 384.497,33.915 382.592,33.915C380.668,33.915 379.026,33.237 377.667,31.877C376.309,30.519 375.63,28.878 375.63,26.953C375.63,25.035 376.309,23.396 377.667,22.038C379.026,20.68 380.668,20 382.592,20" style="fill:rgb(215,237,252);fill-rule:nonzero;"/>
    </g>
</svg>
